<svg width="24" height="24" viewBox="0 0 24 24" fill="none" xmlns="http://www.w3.org/2000/svg">
    <path d="M12 0.75C5.646 0.75 0.5 5.896 0.5 12.25C0.5 17.339 3.792 21.637 8.363 23.16C8.938 23.261 9.153 22.916 9.153 22.614C9.153 22.341 9.139 21.436 9.139 20.472C6.25 21.004 5.503 19.768 5.273 19.122C5.143 18.791 4.583 17.77 4.093 17.497C3.691 17.281 3.116 16.749 4.079 16.735C4.985 16.721 5.632 17.569 5.848 17.914C6.883 19.654 8.536 19.164 9.197 18.862C9.297 18.115 9.599 17.612 9.93 17.324C7.371 17.037 4.698 16.045 4.698 11.646C4.698 10.396 5.143 9.361 5.876 8.556C5.761 8.268 5.359 7.089 5.991 5.508C5.991 5.508 6.954 5.206 9.154 6.687C10.074 6.428 11.051 6.299 12.029 6.299C13.006 6.299 13.984 6.429 14.904 6.687C17.104 5.192 18.066 5.508 18.066 5.508C18.699 7.089 18.296 8.268 18.181 8.556C18.914 9.361 19.36 10.381 19.36 11.646C19.36 16.059 16.672 17.036 14.113 17.324C14.53 17.684 14.889 18.374 14.889 19.452C14.889 20.99 14.875 22.226 14.875 22.614C14.875 22.916 15.091 23.276 15.665 23.161C20.209 21.637 23.5 17.324 23.5 12.25C23.5 5.896 18.354 0.75 12 0.75Z" fill="white"/>
</svg>